<svg width="111" height="78" viewBox="0 0 111 78" fill="none" xmlns="http://www.w3.org/2000/svg">
<g clip-path="url(#clip0)">
<path d="M83.0776 75.737C84.6626 78.1486 88.4081 78.7532 90.6698 76.9628C92.9302 75.1724 93.2068 71.3818 91.2299 69.2802C89.4165 67.3531 86.31 66.9511 84.7473 64.8154C82.5151 61.7638 84.7685 57.5654 86.8807 54.4289C88.9929 51.2924 90.891 46.7746 88.2328 44.086C87.2114 43.0535 85.7075 42.5879 84.7473 41.4977C83.2447 39.7909 83.5577 37.1153 84.5414 35.0644C85.5263 33.0135 87.0667 31.2538 87.9186 29.144C90.3144 23.2046 86.6889 16.67 83.047 11.4049C80.6265 7.90542 78.0306 4.35643 74.3769 2.18295C68.5439 -1.28589 60.6987 -0.45846 55.1905 3.51132C49.6822 7.4811 46.4698 14.176 45.9238 20.951C45.7179 23.5052 45.8344 26.1867 44.7118 28.4898C42.5925 32.8356 36.4747 35.0267 36.217 39.8558C36.0499 42.9875 38.5717 45.6018 39.2812 48.6557C40.0273 51.8641 38.4928 55.472 35.6652 57.1564C33.8871 58.2148 31.6761 58.5814 30.2016 60.0347C28.1494 62.0585 28.3165 65.5721 29.7945 68.0485C31.2725 70.5237 33.7483 72.2045 36.1464 73.8028H26.9268C24.5299 72.2033 22.054 70.5237 20.5749 68.0485C19.0969 65.5733 18.9298 62.0585 20.982 60.0347C22.4565 58.5814 24.6675 58.216 26.4456 57.1564C29.2732 55.472 30.8077 51.8653 30.0616 48.6557C29.3521 45.6018 26.8303 42.9875 26.9974 39.8558C27.2551 35.0267 33.3729 32.8356 35.4922 28.4898C36.6148 26.1867 36.4983 23.5064 36.7042 20.951C37.2514 14.1771 40.4638 7.4811 45.9709 3.51132C51.4779 -0.45846 59.3231 -1.28589 65.1573 2.18413C68.811 4.35761 71.4069 7.9066 73.8274 11.4061C77.4693 16.6712 81.0948 23.207 78.699 29.1451C77.8482 31.255 76.3067 33.0147 75.3218 35.0656C74.3369 37.1165 74.0239 39.7921 75.5277 41.4988C76.4879 42.5891 77.9918 43.0547 79.0132 44.0872C81.6714 46.7746 79.7733 51.2936 77.6611 54.4301C75.5489 57.5665 73.2955 61.765 75.5277 64.8166C77.0904 66.9523 80.197 67.3542 82.0103 69.2814C83.9872 71.3818 83.7106 75.1736 81.4502 76.964C79.1897 78.7544 75.443 78.1497 73.858 75.7382H83.0776V75.737Z" fill="#0000FF"/>
<path d="M49.5482 74.1434C52.5547 74.3226 55.6554 74.4899 58.4983 73.4928C60.5576 72.7703 62.3639 71.4737 64.0666 70.1076C68.251 66.7531 72.2071 62.517 73.0885 57.2212H63.8689C62.9875 62.517 59.0326 66.7531 54.847 70.1076C53.1431 71.4737 51.338 72.7703 49.2787 73.4928C46.4358 74.4899 43.3351 74.3226 40.3286 74.1434H49.5482Z" fill="#0000FF"/>
<path d="M11.7919 31.0263L10.3304 26.8621C9.46672 27.3359 8.33471 27.6247 7.07915 27.6247C5.82359 27.6247 4.69158 27.3359 3.82787 26.8621L2.36638 31.0263H0L5.61766 15.0105H8.53946L14.1571 31.0263H11.7919ZM9.58909 24.7605L7.07915 17.6283L4.56803 24.7605C5.30936 25.0281 6.17308 25.173 7.07915 25.173C7.98405 25.1719 8.84894 25.0281 9.58909 24.7605Z" fill="#CEB4FF"/>
<path d="M19.6523 15.0305H22.8836L28.8931 28.9023V15.0305H31.2595V31.0464H27.4728L22.0199 18.4522V31.0464H19.6535V15.0305H19.6523Z" fill="#CEB4FF"/>
<path d="M42.0418 17.4008H37.6997V15.0305H48.7503V17.4008H44.4082V31.0464H42.0418V17.4008Z" fill="#CEB4FF"/>
<path d="M53.9561 25.9144V20.0599C53.9561 17.0708 56.3848 14.6392 59.3678 14.6392H60.8493C63.8335 14.6392 66.261 17.0719 66.261 20.0599V25.9144C66.261 28.9035 63.8335 31.3351 60.8493 31.3351H59.3678C56.3848 31.3351 53.9561 28.9035 53.9561 25.9144ZM60.8505 28.9447C62.4967 28.9447 63.8758 27.6046 63.8758 25.9144V20.0599C63.8758 18.3897 62.5379 17.0295 60.8505 17.0295H59.369C57.7016 17.0295 56.3436 18.3697 56.3436 20.0599V25.9144C56.3436 27.6458 57.7639 28.9447 59.369 28.9447H60.8505Z" fill="#CEB4FF"/>
<path d="M72.354 15.0305H75.5853L81.5948 28.9023V15.0305H83.9612V31.0464H80.1745L74.7216 18.4522V31.0464H72.3552V15.0305H72.354Z" fill="#CEB4FF"/>
<path d="M90.4629 15.0305H92.8093V30.9438H90.4629V15.0305Z" fill="#CEB4FF"/>
<path d="M98.6938 25.9144V20.0599C98.6938 17.0708 101.121 14.6392 104.106 14.6392H105.587C108.571 14.6392 110.999 17.0719 110.999 20.0599V25.9144C110.999 28.9035 108.57 31.3351 105.587 31.3351H104.106C101.123 31.3351 98.6938 28.9035 98.6938 25.9144ZM105.588 28.9447C107.234 28.9447 108.614 27.6046 108.614 25.9144V20.0599C108.614 18.3897 107.276 17.0295 105.588 17.0295H104.107C102.441 17.0295 101.081 18.3697 101.081 20.0599V25.9144C101.081 27.6458 102.502 28.9447 104.107 28.9447H105.588Z" fill="#CEB4FF"/>
<path d="M5.7002 38.4956H9.01384L11.2367 43.5875C11.5661 43.6287 11.8956 43.6488 12.2451 43.6488C12.5946 43.6488 12.9241 43.6287 13.2536 43.5875L15.4764 38.4956H18.79V54.5114H16.4436V41.7322L14.715 45.669C14.0149 45.9165 13.1924 46.0816 12.3275 46.0816H12.1627C11.299 46.0816 10.4753 45.9165 9.77518 45.669L8.04657 41.7322V54.5126H5.7002V38.4956Z" fill="#CEB4FF"/>
<path d="M36.0746 54.4914L34.6131 50.3272C33.7494 50.801 32.6174 51.0898 31.3619 51.0898C30.1063 51.0898 28.9743 50.801 28.1106 50.3272L26.6491 54.4914H24.2827L29.9004 38.4756H32.8222L38.4398 54.4914H36.0746ZM33.8718 48.2244L31.3619 41.0922L28.8507 48.2244C29.5921 48.492 30.4558 48.6369 31.3619 48.6369C32.2668 48.6369 33.1317 48.4932 33.8718 48.2244Z" fill="#CEB4FF"/>
<path d="M43.9351 38.4956H50.6023C54.2855 38.4956 56.2412 40.9284 56.2412 43.8338C56.2412 45.504 55.4798 46.988 54.2867 47.9769C55.501 48.9658 56.2824 50.4709 56.2824 52.1612V54.5114H53.8948V52.1612C53.8948 50.3684 52.5781 49.172 50.5812 49.172H46.3003V54.5103H43.9751L43.9351 38.4956ZM50.6023 46.8229C52.5781 46.8229 53.8536 45.339 53.8536 43.8338C53.8336 41.8136 52.4745 40.8447 50.6023 40.8447H46.3014V46.8229H50.6023Z" fill="#CEB4FF"/>
<path d="M62.4146 38.4956H71.1188C73.0945 38.4956 74.7195 40.1245 74.7195 42.1024V44.0601C74.7195 44.9877 74.37 45.8529 73.7734 46.4929C74.37 47.1318 74.7195 47.9769 74.7195 48.9257V50.9047C74.7195 52.8837 73.0933 54.5114 71.1188 54.5114H62.4146V38.4956ZM71.1199 45.2777C71.7577 45.2777 72.3131 44.7214 72.3131 44.0613V42.1024C72.3131 41.4423 71.7577 40.9072 71.1199 40.9072H64.7821V45.2765H71.1199V45.2777ZM71.1199 52.0999C71.7577 52.0999 72.3131 51.5636 72.3131 50.9047V48.9257C72.3131 48.2656 71.7577 47.7093 71.1199 47.7093H64.7821V52.0999H71.1199Z" fill="#CEB4FF"/>
<path d="M80.729 38.4956H83.0754V52.1411H89.4956V54.5114H80.729V38.4956Z" fill="#CEB4FF"/>
<path d="M95.998 38.4956H106.493V40.8659H98.3444V45.2765H106.061V47.6468H98.3444V52.0574H106.905V54.4277H95.998V38.4956Z" fill="#CEB4FF"/>
</g>
<defs>
<clipPath id="clip0">
<rect width="111" height="78" fill="white"/>
</clipPath>
</defs>
</svg>
