<svg width="227" height="78" viewBox="0 0 227 78" fill="none" xmlns="http://www.w3.org/2000/svg">
<g clip-path="url(#clip0)">
<path d="M140.53 75.74C142.12 78.15 145.86 78.76 148.12 76.97C150.38 75.18 150.66 71.39 148.68 69.29C146.87 67.36 143.76 66.96 142.2 64.83C139.97 61.78 142.22 57.58 144.33 54.44C146.44 51.3 148.34 46.79 145.68 44.1C144.66 43.07 143.15 42.6 142.19 41.51C140.69 39.8 141 37.13 141.98 35.08C142.96 33.03 144.51 31.27 145.36 29.16C147.76 23.22 144.13 16.69 140.49 11.42C138.07 7.91996 135.47 4.36996 131.82 2.19996C125.99 -1.27004 118.14 -0.440044 112.63 3.52996C107.12 7.49996 103.91 14.19 103.36 20.97C103.15 23.52 103.27 26.21 102.15 28.51C100.03 32.86 93.9098 35.05 93.6598 39.88C93.4898 43.01 96.0098 45.63 96.7198 48.68C97.4698 51.89 95.9298 55.5 93.0998 57.18C91.3198 58.24 89.1098 58.61 87.6398 60.06C85.5898 62.08 85.7498 65.6 87.2298 68.07C88.7098 70.55 91.1798 72.23 93.5798 73.82H84.3598C81.9598 72.22 79.4898 70.54 78.0098 68.07C76.5298 65.59 76.3598 62.08 78.4198 60.06C79.8898 58.61 82.1098 58.24 83.8798 57.18C86.7098 55.5 88.2398 51.89 87.4998 48.68C86.7898 45.63 84.2698 43.01 84.4398 39.88C84.6998 35.05 90.8198 32.86 92.9298 28.51C94.0498 26.21 93.9398 23.53 94.1398 20.97C94.6898 14.2 97.8998 7.49996 103.41 3.52996C108.92 -0.440044 116.76 -1.27004 122.6 2.19996C126.25 4.36996 128.85 7.91996 131.27 11.42C134.91 16.69 138.54 23.22 136.14 29.16C135.29 31.27 133.75 33.03 132.76 35.08C131.78 37.13 131.46 39.81 132.97 41.51C133.93 42.6 135.43 43.07 136.46 44.1C139.12 46.79 137.22 51.31 135.11 54.44C133 57.58 130.74 61.77 132.98 64.83C134.54 66.97 137.65 67.37 139.46 69.29C141.44 71.39 141.16 75.18 138.9 76.97C136.64 78.76 132.89 78.16 131.31 75.74H140.53Z" fill="#0000FF"/>
<path d="M107 74.14C110.01 74.32 113.11 74.49 115.95 73.49C118.01 72.77 119.82 71.47 121.52 70.1C125.7 66.75 129.66 62.51 130.54 57.21H121.32C120.44 62.51 116.48 66.74 112.3 70.1C110.6 71.47 108.79 72.76 106.73 73.49C103.89 74.49 100.79 74.32 97.7798 74.14H107Z" fill="#0000FF"/>
<path d="M11.79 47.04L10.33 42.88C9.47 43.35 8.33 43.64 7.08 43.64C5.83 43.64 4.69 43.35 3.83 42.88L2.37 47.04H0L5.62 31.02H8.54L14.16 47.04H11.79V47.04ZM9.59 40.77L7.08 33.64L4.57 40.77C5.31 41.04 6.18 41.18 7.08 41.18C7.98 41.19 8.85 41.04 9.59 40.77Z" fill="#CEB4FF"/>
<path d="M19.6499 31.0398H22.8799L28.8899 44.9098V31.0398H31.2599V47.0598H27.4699L22.0199 34.4698V47.0598H19.6499V31.0398Z" fill="#CEB4FF"/>
<path d="M42.0402 33.4098H37.7002V31.0398H48.7502V33.4098H44.4102V47.0598H42.0402V33.4098Z" fill="#CEB4FF"/>
<path d="M53.96 41.9299V36.0799C53.96 33.0899 56.39 30.6599 59.37 30.6599H60.85C63.83 30.6599 66.26 33.0899 66.26 36.0799V41.9299C66.26 44.9199 63.83 47.3499 60.85 47.3499H59.37C56.38 47.3499 53.96 44.9199 53.96 41.9299ZM60.85 44.9599C62.5 44.9599 63.88 43.6199 63.88 41.9299V36.0799C63.88 34.4099 62.54 33.0499 60.85 33.0499H59.37C57.7 33.0499 56.34 34.3899 56.34 36.0799V41.9299C56.34 43.6599 57.76 44.9599 59.37 44.9599H60.85Z" fill="#CEB4FF"/>
<path d="M72.3501 31.0398H75.5801L81.5901 44.9098V31.0398H83.9601V47.0598H80.1701L74.7201 34.4698V47.0598H72.3501V31.0398Z" fill="#CEB4FF"/>
<path d="M90.46 31.0398H92.81V46.9498H90.46V31.0398Z" fill="#CEB4FF"/>
<path d="M98.6899 41.9299V36.0799C98.6899 33.0899 101.12 30.6599 104.1 30.6599H105.58C108.56 30.6599 110.99 33.0899 110.99 36.0799V41.9299C110.99 44.9199 108.56 47.3499 105.58 47.3499H104.1C101.12 47.3499 98.6899 44.9199 98.6899 41.9299ZM105.59 44.9599C107.24 44.9599 108.62 43.6199 108.62 41.9299V36.0799C108.62 34.4099 107.28 33.0499 105.59 33.0499H104.11C102.44 33.0499 101.08 34.3899 101.08 36.0799V41.9299C101.08 43.6599 102.5 44.9599 104.11 44.9599H105.59Z" fill="#CEB4FF"/>
<path d="M125.7 31H129.01L131.23 36.09C131.56 36.13 131.89 36.15 132.24 36.15C132.59 36.15 132.92 36.13 133.25 36.09L135.47 31H138.78V47.02H136.43V34.24L134.7 38.18C134 38.43 133.18 38.59 132.31 38.59H132.15C131.29 38.59 130.46 38.42 129.76 38.18L128.03 34.24V47.02H125.68V31H125.7Z" fill="#CEB4FF"/>
<path d="M156.07 47L154.61 42.84C153.75 43.31 152.61 43.6 151.36 43.6C150.1 43.6 148.97 43.31 148.11 42.84L146.65 47H144.28L149.9 30.98H152.82L158.44 47H156.07ZM153.87 40.73L151.36 33.6L148.85 40.73C149.59 41 150.46 41.14 151.36 41.14C152.27 41.14 153.13 41 153.87 40.73Z" fill="#CEB4FF"/>
<path d="M163.94 31H170.61C174.29 31 176.25 33.43 176.25 36.34C176.25 38.01 175.49 39.49 174.3 40.48C175.51 41.47 176.3 42.97 176.3 44.66V47.01H173.91V44.66C173.91 42.87 172.59 41.67 170.6 41.67H166.32V47.01H163.99L163.94 31ZM170.6 39.33C172.58 39.33 173.85 37.85 173.85 36.34C173.83 34.32 172.47 33.35 170.6 33.35H166.3V39.33H170.6Z" fill="#CEB4FF"/>
<path d="M182.41 31H191.11C193.09 31 194.71 32.63 194.71 34.61V36.57C194.71 37.5 194.36 38.36 193.76 39C194.36 39.64 194.71 40.48 194.71 41.43V43.41C194.71 45.39 193.08 47.02 191.11 47.02H182.41V31ZM191.12 37.78C191.76 37.78 192.31 37.22 192.31 36.56V34.6C192.31 33.94 191.75 33.4 191.12 33.4H184.78V37.77L191.12 37.78ZM191.12 44.61C191.76 44.61 192.31 44.07 192.31 43.41V41.43C192.31 40.77 191.75 40.21 191.12 40.21H184.78V44.6H191.12V44.61Z" fill="#CEB4FF"/>
<path d="M200.73 31H203.08V44.65H209.5V47.02H200.73V31V31Z" fill="#CEB4FF"/>
<path d="M216 31H226.49V33.37H218.34V37.78H226.06V40.15H218.34V44.56H226.9V46.93H216V31Z" fill="#CEB4FF"/>
</g>
<defs>
<clipPath id="clip0">
<rect width="226.9" height="78" fill="white"/>
</clipPath>
</defs>
</svg>
