<svg width="32" height="32" viewBox="0 0 32 32" fill="none" xmlns="http://www.w3.org/2000/svg">
<path d="M16 0.741313C24.4275 0.741313 31.2587 7.57251 31.2587 16C31.2587 24.4275 24.4275 31.2587 16 31.2587C7.57251 31.2587 0.741313 24.4275 0.741313 16C0.741313 7.57251 7.57251 0.741313 16 0.741313ZM16 0C11.7263 0 7.70842 1.66425 4.68633 4.68633C1.66425 7.70842 0 11.7263 0 16C0 20.2737 1.66425 24.2916 4.68633 27.3137C7.70842 30.3358 11.7263 32 16 32C20.2737 32 24.2916 30.3358 27.3137 27.3137C30.3358 24.2916 32 20.2737 32 16C32 11.7263 30.3358 7.70842 27.3137 4.68633C24.2916 1.66425 20.2737 0 16 0Z" fill="#0000FF"/>
<path d="M14.7954 9.97565V9.76809C14.7954 9.16515 15.2946 8.66724 15.8963 8.66724H16.1038C16.7068 8.66724 17.2047 9.16639 17.2047 9.76809V9.97565C17.2047 10.5786 16.7055 11.0765 16.1038 11.0765H15.8963C15.2933 11.0765 14.7954 10.5774 14.7954 9.97565ZM14.7954 12.1156H17.2059V23.3341H14.7954V12.1156Z" fill="#0000FF"/>
</svg>
